<svg xmlns="http://www.w3.org/2000/svg" xmlns:xlink="http://www.w3.org/1999/xlink" viewBox="0,0,256,256" width="48px" height="48px" fill-rule="nonzero"><defs><linearGradient x1="3.879" y1="3.879" x2="20.121" y2="20.121" gradientUnits="userSpaceOnUse" id="color-1"><stop offset="0" stop-color="#d1e8fb" stop-opacity="0.70196"></stop><stop offset="1" stop-color="#d1e8fb" stop-opacity="0.70196"></stop></linearGradient><linearGradient x1="3.879" y1="3.879" x2="20.121" y2="20.121" gradientUnits="userSpaceOnUse" id="color-2"><stop offset="0" stop-color="#d1e8fb" stop-opacity="0.70196"></stop><stop offset="0.493" stop-color="#ffffff" stop-opacity="0.30196"></stop><stop offset="0.997" stop-color="#d1e8fb" stop-opacity="0.70196"></stop></linearGradient><linearGradient x1="7.732" y1="9.025" x2="16.268" y2="17.561" gradientUnits="userSpaceOnUse" id="color-3"><stop offset="0" stop-color="#ffffff" stop-opacity="0.63922"></stop><stop offset="0.519" stop-color="#ffffff" stop-opacity="0.63922"></stop><stop offset="1" stop-color="#ffffff" stop-opacity="0.81961"></stop></linearGradient></defs><g fill="none" fill-rule="nonzero" stroke="none" stroke-width="1" stroke-linecap="butt" stroke-linejoin="miter" stroke-miterlimit="10" stroke-dasharray="" stroke-dashoffset="0" font-family="none" font-weight="none" font-size="none" text-anchor="none" style="mix-blend-mode: normal"><g transform="scale(10.66667,10.66667)"><path d="M4,19v-14c0,-1.657 1.343,-3 3,-3h10c1.657,0 3,1.343 3,3v14c0,1.657 -1.343,3 -3,3h-10c-1.657,0 -3,-1.343 -3,-3z" fill="url(#color-1)"></path><path d="M17,2.5c1.379,0 2.5,1.121 2.5,2.5v14c0,1.379 -1.121,2.5 -2.5,2.5h-10c-1.379,0 -2.5,-1.121 -2.5,-2.5v-14c0,-1.379 1.121,-2.5 2.5,-2.5h10M17,2h-10c-1.657,0 -3,1.343 -3,3v14c0,1.657 1.343,3 3,3h10c1.657,0 3,-1.343 3,-3v-14c0,-1.657 -1.343,-3 -3,-3z" fill="url(#color-2)"></path><path d="M9,9c0,-1.657 1.343,-3 3,-3c1.657,0 3,1.343 3,3c0,1.657 -1.343,3 -3,3c-1.657,0 -3,-1.343 -3,-3zM15,14h-6c-1.105,0 -2,0.895 -2,2c0,1.104 0.895,2 2,2h6c1.105,0 2,-0.896 2,-2c0,-1.105 -0.895,-2 -2,-2z" fill="url(#color-3)"></path></g></g></svg>